# xmcd
#
# Track frame offsets:
# 150
# 16960
# 31539
# 52287
# 68014
# 83275
# 99611
# 117215
# 133216
# 150557
# 171296
# 189213
# 206625
#
# Disc length: 2961 seconds
#
#
# Revision: 0
# Processed by: cddbd v1.5.2PL0 Copyright (c) Steve Scherf et al.
# Submitted via: FreeRIP 2.945 
#
DISCID=a10b8f0d
DTITLE=Melanie C - This Time
DYEAR=2007
DGENRE=Pop
TTITLE0=Understand
TTITLE1=What If I Stay
TTITLE2=Protected
TTITLE3=TraThis Time
TTITLE4=Carolyna
TTITLE5=Forever Again
TTITLE6=Your Mistake
TTITLE7=The Moment you believe
TTITLE8=Don´t let me go
TTITLE9=Immune
TTITLE10=May your heart beat
TTITLE11=Out of time
TTITLE12=I want candy
EXTD=
EXTT0=
EXTT1=
EXTT2=
EXTT3=
EXTT4=
EXTT5=
EXTT6=
EXTT7=
EXTT8=
EXTT9=
EXTT10=
EXTT11=
EXTT12=
PLAYORDER=
